<?xml version="1.0" encoding="UTF-8"?>
<svg id="Layer_1" data-name="Layer 1" xmlns="http://www.w3.org/2000/svg" viewBox="0 0 3664.46 1024">
  <defs>
    <style>
      .cls-1 {
        fill: #26b170;
      }

      .cls-2 {
        fill: #009dd1;
      }
    </style>
  </defs>
  <g>
    <path class="cls-2" d="M1221.61,774.68h-109.58V90.79h484.3v106.64h-374.72v208.39h356.13v101.75h-356.13v267.1Z"/>
    <path class="cls-2" d="M1705.9,90.79h100.77v683.88h-100.77V90.79Z"/>
    <path class="cls-2" d="M1986.2,353.97c45.98-47.6,105.81-71.42,179.53-71.42s133.87,23.97,180.51,71.91c46.63,47.94,69.96,107.79,69.96,179.53s-22.99,132.25-68.98,179.53c-45.98,47.3-106.49,70.93-181.49,70.93s-134.37-23.63-180.02-70.93c-45.66-47.28-68.49-107.13-68.49-179.53s22.99-132.4,68.98-180.02ZM2165.73,375.5c-44.36,0-80.07,15.33-107.13,45.98-27.07,30.66-40.6,68.16-40.6,112.51s13.36,81.54,40.11,111.53c26.74,30.01,62.62,45.01,107.62,45.01s81.04-15,108.11-45.01c27.06-29.99,40.6-67.17,40.6-111.53s-14.03-81.04-42.07-112.02c-28.05-30.97-63.59-46.47-106.64-46.47Z"/>
    <path class="cls-2" d="M2862.33,644.55l68.49,67.51c-50.88,50.23-111.87,75.34-182.96,75.34s-133.72-22.17-181.98-66.53c-48.27-44.35-72.4-106.64-72.4-186.87s24.13-142.51,72.4-186.87c48.26-44.35,108.92-66.53,181.98-66.53,67.83,0,125.87,23.82,174.15,71.42l-64.57,67.51c-29.35-28.7-65.55-43.05-108.6-43.05s-81.21,14.52-110.55,43.54c-29.35,29.03-44.03,67.02-44.03,113.98s14.67,87.08,44.03,114.47c29.35,27.39,65.87,41.09,109.58,41.09,46.96,0,85.12-15,114.47-45.01Z"/>
    <path class="cls-2" d="M3020.82,90.79h101.75v399.18l179.05-197.63h122.3v5.87l-208.39,221.11,236.77,248.51v6.85h-123.28l-206.44-223.07v223.07h-101.75V90.79Z"/>
  </g>
  <g>
    <path class="cls-1" d="M774.09,90.79c-87.33,0-158.12,70.8-158.12,158.12v135.86h110.01c87.33,0,158.12-70.8,158.12-158.12V90.79h-110.01Z"/>
    <path class="cls-1" d="M725.97,494.59h-110.01v135.86c0,87.33,70.8,158.12,158.12,158.12h110.01v-135.86c0-87.33-70.8-158.12-158.12-158.12Z"/>
    <path class="cls-2" d="M212.17,226.34v706.87h135.86c87.33,0,158.12-70.8,158.12-158.12v-280.5h-173.45v-109.81h173.45V90.79h-158.45c-74.85,0-135.53,60.68-135.53,135.55Z"/>
  </g>
</svg>